<svg viewBox="0 0 627 330" xmlns="http://www.w3.org/2000/svg"><path d="M14.1814 328.163C15.6771 328.661 28.8398 329.459 69.5245 328.661C81.1581 327.997 117.688 325.37 170.737 320.183C196.664 316.692 263.674 306.219 324.302 292.255C335.437 289.429 367.779 280.485 408.065 267.318C411.721 264.326 419.731 256.247 422.524 247.868C423.853 238.559 427.111 215.252 429.504 196.5C430.002 190.515 431 174.755 431 159.594C432.329 157.433 437.481 148.423 447.453 129.671C447.453 129.671 450.943 120.893 456.926 119.696C459.419 120.527 466 121.691 472.382 119.696C476.703 117.535 499.705 106.63 557.142 80.2971C562.792 77.8035 575.988 71.4198 583.567 65.8341C586.891 63.6729 599.422 54.7624 622.955 36.4094C626.113 31.5884 629.537 18.8543 617.969 6.48596C616.64 4.65731 611.488 1 601.516 1C599.688 1.83121 590.348 5.88749 567.612 15.463C562.294 17.4579 543.281 26.9336 509.776 48.8775C495.151 57.522 461.812 77.8035 445.459 89.7728C444.794 91.6015 443.464 96.4557 443.464 101.243C441.636 102.573 436.584 107.228 431 115.208C429.836 117.203 424.817 126.579 414.048 148.123L390.614 140.643C406.569 145.131 366.782 133.561 301.367 117.203C297.212 116.371 286.11 115.806 274.942 120.195C270.289 122.024 248.118 132.563 196.664 160.093C185.695 165.911 148.8 188.62 88.9693 232.907C79.6624 240.055 52.8717 261.733 20.1644 291.257C18.1701 292.753 11.6884 299.436 1.71672 314.198C0.0547635 317.523 0.220959 324.971 14.1814 328.163Z" /></svg>
